<?xml version="1.0" encoding="UTF-8"?>
<svg xmlns="http://www.w3.org/2000/svg" xmlns:xlink="http://www.w3.org/1999/xlink" width="240px" height="75px" viewBox="35 45 130 40" version="1.1">
<g id="surface1">
<path style=" stroke:none;fill-rule:nonzero;fill:rgb(0%,0%,0%);fill-opacity:1;" d="M 50.144531 48.277344 C 45.257812 48.648438 40.941406 52.492188 39.941406 57.355469 C 39.742188 58.28125 39.714844 59.726562 39.714844 66.617188 L 39.714844 74.765625 L 38.714844 74.765625 L 38.714844 76.765625 L 63.714844 76.765625 L 63.714844 74.765625 L 62.644531 74.765625 L 62.6875 67.519531 C 62.699219 63.285156 62.65625 59.640625 62.570312 58.78125 C 62.171875 54.652344 60 51.390625 56.429688 49.535156 C 54.570312 48.574219 52.242188 48.105469 50.144531 48.277344 Z M 52.972656 50.40625 C 54.199219 50.648438 55.699219 51.292969 56.65625 51.964844 L 57.269531 52.40625 L 54.214844 55.464844 L 51.171875 58.511719 L 48.171875 55.453125 C 45.871094 53.109375 45.199219 52.351562 45.328125 52.222656 C 45.699219 51.851562 47.230469 51.035156 48.085938 50.75 C 49.855469 50.148438 51.269531 50.046875 52.972656 50.40625 Z M 47.058594 55.851562 C 48.558594 57.339844 49.8125 58.582031 49.828125 58.640625 C 49.855469 58.710938 48.042969 58.753906 45.800781 58.753906 C 42.628906 58.753906 41.714844 58.710938 41.714844 58.570312 C 41.730469 58.097656 42.1875 56.511719 42.542969 55.722656 C 42.929688 54.894531 44.085938 53.179688 44.269531 53.179688 C 44.3125 53.179688 45.570312 54.378906 47.058594 55.851562 Z M 58.644531 53.851562 C 59.6875 55.296875 60.570312 57.382812 60.570312 58.425781 L 60.570312 58.753906 L 52.355469 58.753906 L 55.144531 55.96875 C 56.671875 54.4375 57.972656 53.179688 58.027344 53.179688 C 58.085938 53.179688 58.355469 53.480469 58.644531 53.851562 Z M 50.714844 62.757812 L 50.714844 65.757812 L 41.714844 65.757812 L 41.714844 59.753906 L 50.714844 59.753906 Z M 60.714844 62.757812 L 60.714844 65.757812 L 51.714844 65.757812 L 51.714844 59.753906 L 60.714844 59.753906 Z M 50.6875 69.71875 L 50.644531 72.691406 L 46.1875 72.734375 L 41.714844 72.765625 L 41.714844 66.761719 L 50.714844 66.761719 Z M 60.714844 69.761719 L 60.714844 72.765625 L 51.714844 72.765625 L 51.714844 66.761719 L 60.714844 66.761719 Z M 60.714844 69.761719 "/>
<path style=" stroke:none;fill-rule:nonzero;fill:rgb(0%,0%,0%);fill-opacity:1;" d="M 71.355469 49.40625 C 69.484375 50.0625 68.542969 52.308594 68.871094 55.238281 C 69.15625 57.855469 70.5 59.183594 72.855469 59.183594 C 74.757812 59.183594 76.085938 58.238281 76.65625 56.496094 C 77.070312 55.265625 77.027344 52.820312 76.585938 51.679688 C 76.171875 50.621094 75.300781 49.734375 74.34375 49.40625 C 73.515625 49.132812 72.144531 49.121094 71.355469 49.40625 Z M 73.671875 51.136719 C 74.484375 51.519531 74.898438 52.578125 74.886719 54.25 C 74.886719 56.46875 74.144531 57.566406 72.742188 57.425781 C 71.527344 57.296875 70.855469 56.125 70.855469 54.121094 C 70.855469 52.863281 71.042969 52.179688 71.527344 51.59375 C 72.144531 50.863281 72.8125 50.71875 73.671875 51.136719 Z M 73.671875 51.136719 "/>
<path style=" stroke:none;fill-rule:nonzero;fill:rgb(0%,0%,0%);fill-opacity:1;" d="M 123.800781 52.105469 C 122.472656 52.578125 121.84375 53.492188 121.742188 55.125 C 121.628906 56.996094 122.214844 58.398438 123.328125 58.910156 C 124.070312 59.242188 125.515625 59.269531 126.527344 58.96875 C 127.542969 58.667969 127.65625 58.484375 127.285156 57.769531 C 127 57.183594 126.984375 57.183594 126.585938 57.398438 C 125.441406 57.984375 124.15625 57.726562 123.785156 56.839844 C 123.671875 56.554688 123.570312 56.265625 123.570312 56.179688 C 123.570312 56.09375 124.3125 56.039062 125.628906 56.039062 L 127.671875 56.039062 L 127.769531 55.339844 C 127.898438 54.308594 127.628906 53.207031 127.085938 52.664062 C 126.34375 51.921875 124.957031 51.691406 123.800781 52.105469 Z M 125.769531 53.78125 C 125.898438 53.953125 126 54.28125 126 54.496094 L 126 54.894531 L 124.855469 54.894531 C 123.757812 54.894531 123.714844 54.878906 123.714844 54.550781 C 123.714844 54.378906 123.871094 54.050781 124.070312 53.835938 C 124.527344 53.335938 125.441406 53.308594 125.769531 53.78125 Z M 125.769531 53.78125 "/>
<path style=" stroke:none;fill-rule:nonzero;fill:rgb(0%,0%,0%);fill-opacity:1;" d="M 77.570312 52.894531 L 77.570312 53.75 L 79.570312 53.75 L 79.570312 59.039062 L 81.429688 59.039062 L 81.429688 53.75 L 83.285156 53.75 L 83.285156 52.035156 L 77.570312 52.035156 Z M 77.570312 52.894531 "/>
<path style=" stroke:none;fill-rule:nonzero;fill:rgb(0%,0%,0%);fill-opacity:1;" d="M 84.371094 53.492188 C 84.171875 56.410156 83.8125 57.511719 83.101562 57.425781 C 82.84375 57.398438 82.785156 57.496094 82.6875 58.109375 C 82.628906 58.496094 82.644531 58.882812 82.699219 58.941406 C 82.914062 59.15625 84.242188 59.097656 84.613281 58.855469 C 85.269531 58.425781 85.742188 57.011719 85.941406 54.851562 L 86.042969 53.75 L 87.285156 53.75 L 87.285156 59.039062 L 89.144531 59.039062 L 89.144531 52.035156 L 84.472656 52.035156 Z M 84.371094 53.492188 "/>
<path style=" stroke:none;fill-rule:nonzero;fill:rgb(0%,0%,0%);fill-opacity:1;" d="M 90.671875 52.136719 C 90.613281 52.179688 90.570312 53.765625 90.570312 55.636719 L 90.570312 59.039062 L 91.8125 59.039062 L 93.085938 57.410156 C 93.785156 56.511719 94.429688 55.652344 94.527344 55.507812 C 94.65625 55.308594 94.699219 55.625 94.699219 57.140625 L 94.714844 59.039062 L 96.570312 59.039062 L 96.570312 52.035156 L 96.015625 52.035156 C 95.484375 52.035156 95.398438 52.09375 94.527344 53.207031 C 94.027344 53.867188 93.34375 54.78125 93.015625 55.238281 L 92.429688 56.082031 L 92.429688 52.035156 L 91.601562 52.035156 C 91.144531 52.035156 90.714844 52.078125 90.671875 52.136719 Z M 90.671875 52.136719 "/>
<path style=" stroke:none;fill-rule:nonzero;fill:rgb(0%,0%,0%);fill-opacity:1;" d="M 97.714844 53.566406 C 97.714844 55.367188 97.871094 56.066406 98.371094 56.453125 C 98.886719 56.851562 100.113281 56.980469 100.929688 56.710938 L 101.570312 56.480469 L 101.570312 59.039062 L 103.429688 59.039062 L 103.429688 52.019531 L 102.542969 52.0625 L 101.644531 52.105469 L 101.601562 53.566406 L 101.558594 55.023438 L 101.027344 55.179688 C 100.300781 55.378906 100.230469 55.367188 99.914062 55.023438 C 99.699219 54.792969 99.628906 54.4375 99.570312 53.421875 L 99.5 52.105469 L 98.613281 52.0625 L 97.714844 52.019531 Z M 97.714844 53.566406 "/>
<path style=" stroke:none;fill-rule:nonzero;fill:rgb(0%,0%,0%);fill-opacity:1;" d="M 105.101562 52.136719 C 105.042969 52.179688 105 53.765625 105 55.636719 L 105 59.039062 L 106.855469 59.039062 L 106.855469 56.324219 L 109 56.324219 L 109 59.039062 L 110.855469 59.039062 L 110.855469 52.019531 L 109.972656 52.0625 L 109.070312 52.105469 L 109.027344 53.351562 L 108.984375 54.609375 L 106.855469 54.609375 L 106.855469 52.035156 L 106.027344 52.035156 C 105.570312 52.035156 105.144531 52.078125 105.101562 52.136719 Z M 105.101562 52.136719 "/>
<path style=" stroke:none;fill-rule:nonzero;fill:rgb(0%,0%,0%);fill-opacity:1;" d="M 112.386719 52.136719 C 112.328125 52.179688 112.285156 53.75 112.285156 55.609375 L 112.285156 58.996094 L 113.34375 59.097656 C 116.457031 59.382812 117.855469 58.625 117.855469 56.683594 C 117.855469 55.066406 117.15625 54.496094 115.1875 54.480469 L 114.144531 54.464844 L 114.144531 52.035156 L 113.3125 52.035156 C 112.855469 52.035156 112.429688 52.078125 112.386719 52.136719 Z M 115.386719 55.910156 C 115.828125 56.082031 116 56.28125 116 56.667969 C 116 57.183594 115.585938 57.46875 114.828125 57.46875 L 114.144531 57.46875 L 114.144531 56.695312 C 114.144531 55.996094 114.171875 55.910156 114.472656 55.851562 C 114.644531 55.824219 114.828125 55.78125 114.886719 55.765625 C 114.941406 55.765625 115.15625 55.824219 115.386719 55.910156 Z M 115.386719 55.910156 "/>
<path style=" stroke:none;fill-rule:nonzero;fill:rgb(0%,0%,0%);fill-opacity:1;" d="M 118.671875 52.136719 C 118.613281 52.179688 118.570312 53.765625 118.570312 55.636719 L 118.570312 59.039062 L 120.429688 59.039062 L 120.429688 52.035156 L 119.601562 52.035156 C 119.144531 52.035156 118.714844 52.078125 118.671875 52.136719 Z M 118.671875 52.136719 "/>
<path style=" stroke:none;fill-rule:nonzero;fill:rgb(0%,0%,0%);fill-opacity:1;" d="M 116.730469 64.773438 C 116.542969 64.84375 115.769531 65 115.015625 65.101562 C 114.230469 65.214844 113.371094 65.429688 113.027344 65.601562 C 111.800781 66.230469 111.199219 68.089844 111.3125 70.835938 C 111.429688 73.507812 112.3125 74.636719 114.355469 74.738281 C 116.65625 74.867188 117.769531 73.636719 117.757812 70.976562 C 117.742188 68.789062 116.914062 67.875 114.972656 67.890625 C 114.113281 67.890625 113.714844 68.03125 113.1875 68.519531 C 112.769531 68.890625 112.757812 68.632812 113.144531 67.789062 C 113.472656 67.058594 113.929688 66.832031 115.355469 66.703125 C 115.914062 66.644531 116.570312 66.53125 116.828125 66.460938 C 117.269531 66.316406 117.285156 66.289062 117.285156 65.546875 C 117.285156 64.6875 117.214844 64.585938 116.730469 64.773438 Z M 115.429688 69.761719 C 115.800781 70.132812 115.898438 70.605469 115.828125 71.648438 C 115.769531 72.378906 115.699219 72.578125 115.371094 72.863281 C 114.558594 73.566406 113.558594 73.105469 113.300781 71.90625 C 113.214844 71.519531 113.171875 71.121094 113.199219 71.019531 C 113.242188 70.921875 113.300781 70.664062 113.34375 70.433594 C 113.398438 70.21875 113.558594 69.917969 113.714844 69.761719 C 114.101562 69.375 115.042969 69.375 115.429688 69.761719 Z M 115.429688 69.761719 "/>
<path style=" stroke:none;fill-rule:nonzero;fill:rgb(0%,0%,0%);fill-opacity:1;" d="M 70.828125 67.675781 C 69.984375 67.976562 69.613281 68.273438 69.1875 69.003906 C 68.8125 69.632812 68.785156 69.820312 68.785156 71.121094 C 68.785156 72.308594 68.84375 72.648438 69.101562 73.121094 C 69.714844 74.28125 70.601562 74.765625 72.027344 74.765625 C 74.15625 74.75 75.199219 73.507812 75.1875 71.019531 C 75.171875 69.203125 74.414062 68.019531 72.984375 67.617188 C 72.328125 67.417969 71.457031 67.445312 70.828125 67.675781 Z M 72.472656 69.203125 C 73.5 69.675781 73.585938 72.507812 72.585938 73.050781 C 71.742188 73.492188 70.929688 72.949219 70.714844 71.777344 C 70.371094 69.917969 71.242188 68.648438 72.472656 69.203125 Z M 72.472656 69.203125 "/>
<path style=" stroke:none;fill-rule:nonzero;fill:rgb(0%,0%,0%);fill-opacity:1;" d="M 92.429688 67.632812 C 91.914062 67.675781 91.257812 67.789062 90.957031 67.890625 C 90.371094 68.089844 90.355469 68.160156 90.714844 69.132812 C 90.828125 69.40625 90.929688 69.476562 91.113281 69.40625 C 91.242188 69.347656 91.757812 69.246094 92.242188 69.175781 C 93.542969 68.988281 94 69.234375 94 70.121094 C 94 70.417969 93.929688 70.449219 92.871094 70.503906 C 91.027344 70.605469 90 71.390625 90 72.679688 C 90 73.90625 90.855469 74.695312 92.15625 74.679688 C 92.941406 74.664062 94 74.222656 94 73.894531 C 94 73.578125 94.257812 73.808594 94.34375 74.195312 C 94.414062 74.609375 94.441406 74.621094 95.214844 74.621094 C 95.984375 74.621094 96.015625 74.609375 95.898438 74.292969 C 95.84375 74.121094 95.785156 72.851562 95.785156 71.476562 C 95.785156 68.789062 95.699219 68.402344 95.042969 67.960938 C 94.570312 67.660156 93.542969 67.53125 92.429688 67.632812 Z M 94 71.992188 C 94 72.519531 93.785156 72.851562 93.300781 73.050781 C 92.742188 73.277344 92.15625 73.136719 92.015625 72.722656 C 91.757812 72.0625 92.300781 71.648438 93.398438 71.636719 C 93.957031 71.621094 94 71.648438 94 71.992188 Z M 94 71.992188 "/>
<path style=" stroke:none;fill-rule:nonzero;fill:rgb(0%,0%,0%);fill-opacity:1;" d="M 121 67.632812 C 120.484375 67.675781 119.828125 67.789062 119.527344 67.890625 C 118.941406 68.089844 118.929688 68.160156 119.285156 69.132812 C 119.398438 69.40625 119.5 69.476562 119.6875 69.40625 C 119.8125 69.347656 120.328125 69.246094 120.8125 69.175781 C 122.113281 68.988281 122.570312 69.234375 122.570312 70.121094 C 122.570312 70.417969 122.5 70.449219 121.441406 70.503906 C 119.601562 70.605469 118.570312 71.390625 118.570312 72.679688 C 118.570312 73.90625 119.429688 74.695312 120.730469 74.679688 C 121.515625 74.664062 122.570312 74.222656 122.570312 73.894531 C 122.570312 73.578125 122.828125 73.808594 122.914062 74.195312 C 122.984375 74.609375 123.015625 74.621094 123.785156 74.621094 C 124.558594 74.621094 124.585938 74.609375 124.472656 74.292969 C 124.414062 74.121094 124.355469 72.851562 124.355469 71.476562 C 124.355469 68.789062 124.269531 68.402344 123.613281 67.960938 C 123.144531 67.660156 122.113281 67.53125 121 67.632812 Z M 122.570312 71.992188 C 122.570312 72.519531 122.355469 72.851562 121.871094 73.050781 C 121.3125 73.277344 120.730469 73.136719 120.585938 72.722656 C 120.328125 72.0625 120.871094 71.648438 121.972656 71.636719 C 122.527344 71.621094 122.570312 71.648438 122.570312 71.992188 Z M 122.570312 71.992188 "/>
<path style=" stroke:none;fill-rule:nonzero;fill:rgb(0%,0%,0%);fill-opacity:1;" d="M 141.257812 67.675781 C 140.414062 67.976562 140.042969 68.273438 139.613281 69.003906 C 139.242188 69.632812 139.214844 69.820312 139.214844 71.121094 C 139.214844 72.308594 139.269531 72.648438 139.527344 73.121094 C 140.144531 74.28125 141.027344 74.765625 142.457031 74.765625 C 144.585938 74.75 145.628906 73.507812 145.613281 71.019531 C 145.601562 69.203125 144.84375 68.019531 143.414062 67.617188 C 142.757812 67.417969 141.886719 67.445312 141.257812 67.675781 Z M 142.898438 69.203125 C 143.929688 69.675781 144.015625 72.507812 143.015625 73.050781 C 142.171875 73.492188 141.355469 72.949219 141.144531 71.777344 C 140.800781 69.917969 141.671875 68.648438 142.898438 69.203125 Z M 142.898438 69.203125 "/>
<path style=" stroke:none;fill-rule:nonzero;fill:rgb(0%,0%,0%);fill-opacity:1;" d="M 76.386719 67.71875 C 76.328125 67.761719 76.285156 69.347656 76.285156 71.21875 L 76.285156 74.621094 L 78.144531 74.621094 L 78.144531 73.191406 C 78.144531 72.019531 78.1875 71.761719 78.355469 71.761719 C 78.472656 71.761719 78.929688 72.390625 79.386719 73.191406 L 80.214844 74.609375 L 81.257812 74.621094 C 81.8125 74.621094 82.285156 74.578125 82.285156 74.507812 C 82.285156 74.238281 80.515625 71.378906 80.171875 71.105469 L 79.800781 70.804688 L 80.113281 70.605469 C 80.441406 70.40625 82 68.0625 82 67.773438 C 82 67.675781 81.65625 67.617188 81.070312 67.617188 L 80.15625 67.617188 L 79.328125 69.046875 C 78.871094 69.832031 78.414062 70.476562 78.328125 70.476562 C 78.1875 70.476562 78.144531 70.089844 78.144531 69.046875 L 78.144531 67.617188 L 77.3125 67.617188 C 76.855469 67.617188 76.429688 67.660156 76.386719 67.71875 Z M 76.386719 67.71875 "/>
<path style=" stroke:none;fill-rule:nonzero;fill:rgb(0%,0%,0%);fill-opacity:1;" d="M 83.101562 67.71875 C 83.042969 67.761719 83 69.347656 83 71.21875 L 83 74.621094 L 84.855469 74.621094 L 84.855469 71.90625 L 87 71.90625 L 87 74.621094 L 88.855469 74.621094 L 88.855469 67.601562 L 87.972656 67.644531 L 87.070312 67.6875 L 87.027344 68.933594 L 86.984375 70.191406 L 84.855469 70.191406 L 84.855469 67.617188 L 84.027344 67.617188 C 83.570312 67.617188 83.144531 67.660156 83.101562 67.71875 Z M 83.101562 67.71875 "/>
<path style=" stroke:none;fill-rule:nonzero;fill:rgb(0%,0%,0%);fill-opacity:1;" d="M 100.8125 67.71875 C 100.757812 67.761719 100.714844 69.347656 100.714844 71.21875 L 100.714844 74.621094 L 101.957031 74.621094 L 103.230469 72.992188 C 103.929688 72.09375 104.570312 71.234375 104.671875 71.089844 C 104.800781 70.890625 104.84375 71.207031 104.84375 72.722656 L 104.855469 74.621094 L 106.714844 74.621094 L 106.714844 67.617188 L 106.15625 67.617188 C 105.628906 67.617188 105.542969 67.675781 104.671875 68.789062 C 104.171875 69.449219 103.484375 70.363281 103.15625 70.820312 L 102.570312 71.664062 L 102.570312 67.617188 L 101.742188 67.617188 C 101.285156 67.617188 100.855469 67.660156 100.8125 67.71875 Z M 100.8125 67.71875 "/>
<path style=" stroke:none;fill-rule:nonzero;fill:rgb(0%,0%,0%);fill-opacity:1;" d="M 126.65625 69.074219 C 126.457031 71.992188 126.101562 73.09375 125.386719 73.007812 C 125.128906 72.980469 125.070312 73.078125 124.972656 73.695312 C 124.914062 74.078125 124.929688 74.464844 124.984375 74.523438 C 125.199219 74.738281 126.527344 74.679688 126.898438 74.4375 C 127.558594 74.007812 128.027344 72.59375 128.230469 70.433594 L 128.328125 69.332031 L 129.570312 69.332031 L 129.570312 74.621094 L 131.429688 74.621094 L 131.429688 67.617188 L 126.757812 67.617188 Z M 126.65625 69.074219 "/>
<path style=" stroke:none;fill-rule:nonzero;fill:rgb(0%,0%,0%);fill-opacity:1;" d="M 132.957031 67.71875 C 132.898438 67.761719 132.855469 69.347656 132.855469 71.21875 L 132.855469 74.621094 L 134.714844 74.621094 L 134.714844 73.191406 C 134.714844 72.019531 134.757812 71.761719 134.929688 71.761719 C 135.042969 71.761719 135.5 72.390625 135.957031 73.191406 L 136.785156 74.609375 L 137.828125 74.621094 C 138.386719 74.621094 138.855469 74.578125 138.855469 74.507812 C 138.855469 74.238281 137.085938 71.378906 136.742188 71.105469 L 136.371094 70.804688 L 136.6875 70.605469 C 137.015625 70.40625 138.570312 68.0625 138.570312 67.773438 C 138.570312 67.675781 138.230469 67.617188 137.644531 67.617188 L 136.730469 67.617188 L 135.898438 69.046875 C 135.441406 69.832031 134.984375 70.476562 134.898438 70.476562 C 134.757812 70.476562 134.714844 70.089844 134.714844 69.046875 L 134.714844 67.617188 L 133.886719 67.617188 C 133.429688 67.617188 133 67.660156 132.957031 67.71875 Z M 132.957031 67.71875 "/>
<path style=" stroke:none;fill-rule:nonzero;fill:rgb(0%,0%,0%);fill-opacity:1;" d="M 146.8125 67.71875 C 146.757812 67.761719 146.714844 69.347656 146.714844 71.21875 L 146.714844 74.621094 L 148.570312 74.621094 L 148.570312 71.90625 L 150.714844 71.90625 L 150.714844 74.621094 L 152.570312 74.621094 L 152.570312 67.601562 L 151.6875 67.644531 L 150.785156 67.6875 L 150.742188 68.933594 L 150.699219 70.191406 L 148.570312 70.191406 L 148.570312 67.617188 L 147.742188 67.617188 C 147.285156 67.617188 146.855469 67.660156 146.8125 67.71875 Z M 146.8125 67.71875 "/>
<path style=" stroke:none;fill-rule:nonzero;fill:rgb(0%,0%,0%);fill-opacity:1;" d="M 154.242188 67.71875 C 154.1875 67.761719 154.144531 69.332031 154.144531 71.191406 L 154.144531 74.578125 L 155.199219 74.679688 C 158.3125 74.964844 159.714844 74.207031 159.714844 72.265625 C 159.714844 70.648438 159.015625 70.078125 157.042969 70.0625 L 156 70.046875 L 156 67.617188 L 155.171875 67.617188 C 154.714844 67.617188 154.285156 67.660156 154.242188 67.71875 Z M 157.242188 71.492188 C 157.6875 71.664062 157.855469 71.863281 157.855469 72.25 C 157.855469 72.765625 157.441406 73.050781 156.6875 73.050781 L 156 73.050781 L 156 72.277344 C 156 71.578125 156.027344 71.492188 156.328125 71.433594 C 156.5 71.40625 156.6875 71.363281 156.742188 71.347656 C 156.800781 71.347656 157.015625 71.40625 157.242188 71.492188 Z M 157.242188 71.492188 "/>
<path style=" stroke:none;fill-rule:nonzero;fill:rgb(0%,0%,0%);fill-opacity:1;" d="M 160.527344 67.71875 C 160.472656 67.761719 160.429688 69.347656 160.429688 71.21875 L 160.429688 74.621094 L 162.285156 74.621094 L 162.285156 67.617188 L 161.457031 67.617188 C 161 67.617188 160.570312 67.660156 160.527344 67.71875 Z M 160.527344 67.71875 "/>
</g>
</svg>
